<?xml version="1.0" standalone="no"?>
<!DOCTYPE svg PUBLIC "-//W3C//DTD SVG 20010904//EN"
 "http://www.w3.org/TR/2001/REC-SVG-20010904/DTD/svg10.dtd">
<svg version="1.0" xmlns="http://www.w3.org/2000/svg"
 width="256.000000pt" height="256.000000pt" viewBox="0 0 256.000000 256.000000"
 preserveAspectRatio="xMidYMid meet">
<metadata>
Created by potrace 1.14, written by Peter Selinger 2001-2017
</metadata>
<g transform="translate(0.000000,256.000000) scale(0.100000,-0.100000)"
fill="#000000" stroke="none">
<path d="M445 2546 c-82 -35 -93 -138 -22 -202 l32 -30 -1 -1157 0 -1157 37 0
c21 0 39 5 41 13 2 6 3 292 3 634 -1 343 0 623 2 623 1 0 24 -12 50 -28 62
-35 102 -49 185 -62 61 -9 235 -7 298 4 14 3 45 7 70 11 25 3 95 17 155 30 96
21 130 23 265 20 159 -4 181 -6 266 -26 27 -6 60 -13 74 -15 14 -3 77 -23 140
-45 63 -22 123 -42 132 -46 17 -5 18 26 17 530 l0 536 -95 30 c-295 94 -558
102 -904 27 -171 -37 -177 -38 -280 -42 -63 -2 -119 2 -165 13 -89 20 -214 76
-211 95 1 8 18 31 39 51 20 21 37 48 38 60 4 75 -23 121 -79 137 -46 12 -50
12 -87 -4z"/>
</g>
</svg>
